<?xml version="1.0" encoding="UTF-8"?>
<svg xmlns="http://www.w3.org/2000/svg" xmlns:xlink="http://www.w3.org/1999/xlink" width="16px" height="16px" viewBox="0 0 16 16" version="1.1">
<g id="surface1">
<path style=" stroke:none;fill-rule:nonzero;fill:rgb(0%,0%,0%);fill-opacity:1;" d="M 4.972656 1.203125 C 4.804688 1.207031 4.699219 1.21875 4.546875 1.238281 C 4.210938 1.289062 3.847656 1.386719 3.53125 1.519531 C 3.453125 1.554688 3.300781 1.621094 3.246094 1.648438 C 3.195312 1.671875 3.121094 1.714844 3.125 1.71875 C 3.125 1.71875 3.152344 1.726562 3.183594 1.730469 C 3.21875 1.738281 3.261719 1.75 3.28125 1.757812 C 3.363281 1.785156 3.464844 1.84375 3.535156 1.902344 C 3.617188 1.972656 3.695312 2.097656 3.757812 2.253906 C 3.789062 2.328125 3.792969 2.339844 3.808594 2.335938 C 3.816406 2.335938 3.863281 2.316406 3.914062 2.292969 C 4.085938 2.21875 4.222656 2.171875 4.421875 2.121094 C 4.59375 2.078125 4.695312 2.0625 4.902344 2.046875 C 5.390625 2.011719 5.921875 2.109375 6.382812 2.320312 C 6.980469 2.589844 7.472656 3.039062 7.804688 3.617188 C 8.03125 4.011719 8.171875 4.492188 8.199219 4.964844 C 8.207031 5.0625 8.203125 5.289062 8.195312 5.378906 C 8.171875 5.667969 8.105469 5.953125 8.003906 6.230469 C 7.898438 6.507812 7.722656 6.828125 7.554688 7.035156 C 7.402344 7.226562 7.125 7.5 6.953125 7.628906 C 6.636719 7.863281 6.242188 8.050781 5.84375 8.148438 C 5.601562 8.210938 5.394531 8.234375 5.105469 8.234375 C 4.867188 8.234375 4.707031 8.21875 4.519531 8.183594 C 3.609375 8 2.839844 7.441406 2.394531 6.636719 C 2.152344 6.199219 2.035156 5.773438 2.003906 5.21875 C 2 5.164062 2.003906 5.152344 2.027344 5.144531 C 2.035156 5.136719 2.046875 5.132812 2.046875 5.128906 C 2.054688 5.121094 2.058594 5.082031 2.0625 5.003906 C 2.0625 4.699219 2.152344 4.351562 2.285156 4.105469 C 2.347656 3.988281 2.449219 3.84375 2.46875 3.835938 C 2.484375 3.832031 2.542969 3.882812 2.792969 4.09375 C 2.902344 4.183594 2.945312 4.21875 2.980469 4.238281 C 3.007812 4.25 3.007812 4.25 3.050781 4.25 C 3.089844 4.246094 3.09375 4.246094 3.109375 4.234375 C 3.148438 4.207031 3.167969 4.144531 3.195312 3.996094 C 3.234375 3.761719 3.253906 3.585938 3.261719 3.359375 C 3.269531 3.226562 3.269531 2.503906 3.261719 2.441406 C 3.253906 2.34375 3.242188 2.3125 3.203125 2.285156 C 3.152344 2.25 3.105469 2.246094 2.683594 2.246094 C 2.375 2.246094 2.183594 2.25 2.023438 2.261719 C 2.007812 2.265625 1.953125 2.269531 1.902344 2.273438 C 1.738281 2.285156 1.507812 2.3125 1.398438 2.335938 C 1.296875 2.359375 1.257812 2.375 1.234375 2.410156 C 1.199219 2.464844 1.203125 2.550781 1.238281 2.59375 C 1.246094 2.601562 1.285156 2.632812 1.324219 2.667969 C 1.445312 2.773438 1.664062 2.976562 1.714844 3.027344 L 1.734375 3.042969 L 1.664062 3.183594 C 1.527344 3.457031 1.4375 3.675781 1.347656 3.976562 C 1.269531 4.242188 1.199219 4.570312 1.1875 4.738281 C 1.167969 4.957031 1.171875 5.433594 1.191406 5.597656 C 1.222656 5.886719 1.3125 6.234375 1.425781 6.53125 C 1.761719 7.394531 2.394531 8.128906 3.203125 8.578125 C 3.648438 8.828125 4.144531 8.992188 4.648438 9.054688 C 4.832031 9.078125 5.144531 9.078125 5.453125 9.058594 C 5.632812 9.046875 5.703125 9.039062 5.867188 9.003906 C 6.574219 8.855469 7.175781 8.554688 7.703125 8.085938 C 8.445312 7.421875 8.898438 6.566406 9.019531 5.589844 C 9.035156 5.488281 9.039062 5.371094 9.039062 5.121094 C 9.039062 4.902344 9.035156 4.839844 9.019531 4.695312 C 8.976562 4.261719 8.832031 3.785156 8.617188 3.371094 C 8.328125 2.8125 7.945312 2.359375 7.449219 1.988281 C 7.257812 1.84375 7.085938 1.734375 6.875 1.628906 C 6.414062 1.390625 5.910156 1.25 5.394531 1.210938 C 5.339844 1.207031 5.089844 1.199219 5.078125 1.199219 C 5.074219 1.199219 5.027344 1.203125 4.972656 1.203125 Z M 4.972656 1.203125 "/>
<path style=" stroke:none;fill-rule:nonzero;fill:rgb(0%,0%,0%);fill-opacity:1;" d="M 11.558594 2.257812 C 11.4375 2.28125 11.308594 2.363281 11.230469 2.46875 C 11.191406 2.527344 11.175781 2.570312 11.164062 2.667969 C 11.15625 2.75 11.152344 3.089844 11.15625 3.800781 L 11.160156 4.519531 L 11.183594 4.570312 C 11.226562 4.65625 11.265625 4.710938 11.328125 4.757812 C 11.394531 4.816406 11.464844 4.847656 11.554688 4.863281 C 11.613281 4.871094 11.738281 4.871094 11.796875 4.863281 C 11.902344 4.84375 11.988281 4.796875 12.066406 4.710938 C 12.113281 4.667969 12.136719 4.625 12.167969 4.558594 L 12.191406 4.507812 L 12.191406 2.625 L 12.167969 2.574219 C 12.113281 2.449219 12.054688 2.378906 11.960938 2.324219 C 11.878906 2.277344 11.800781 2.257812 11.675781 2.253906 C 11.617188 2.253906 11.582031 2.253906 11.558594 2.257812 Z M 11.558594 2.257812 "/>
<path style=" stroke:none;fill-rule:nonzero;fill:rgb(0%,0%,0%);fill-opacity:1;" d="M 9.332031 3.296875 C 9.136719 3.300781 9.152344 3.300781 9.152344 3.308594 C 9.152344 3.3125 9.160156 3.335938 9.171875 3.367188 C 9.320312 3.726562 9.417969 4.015625 9.480469 4.316406 C 9.570312 4.71875 9.589844 5.25 9.53125 5.710938 C 9.503906 5.953125 9.46875 6.113281 9.394531 6.335938 C 9.382812 6.378906 9.367188 6.421875 9.367188 6.429688 L 9.363281 6.441406 L 9.394531 6.445312 C 9.46875 6.449219 10.710938 6.453125 12.1875 6.453125 L 13.769531 6.453125 L 13.769531 7.34375 C 13.769531 8.59375 13.761719 12.332031 13.761719 12.703125 C 13.757812 13.078125 13.75 13.429688 13.746094 13.46875 C 13.742188 13.484375 13.734375 13.507812 13.722656 13.527344 C 13.667969 13.640625 13.558594 13.734375 13.433594 13.777344 C 13.394531 13.789062 13.394531 13.789062 13.257812 13.792969 C 13.160156 13.796875 11.835938 13.800781 8.382812 13.796875 L 3.640625 13.796875 L 3.570312 13.765625 C 3.492188 13.726562 3.445312 13.695312 3.402344 13.648438 C 3.324219 13.566406 3.285156 13.464844 3.277344 13.335938 C 3.269531 13.226562 3.265625 12.285156 3.261719 10.6875 L 3.257812 9.175781 L 3.128906 9.109375 C 3.003906 9.046875 2.917969 8.996094 2.8125 8.929688 C 2.667969 8.839844 2.515625 8.734375 2.402344 8.648438 C 2.300781 8.570312 2.234375 8.519531 2.226562 8.519531 C 2.226562 8.519531 2.222656 8.542969 2.222656 8.605469 C 2.21875 8.648438 2.21875 9.425781 2.214844 10.328125 C 2.214844 11.929688 2.21875 13.203125 2.226562 13.390625 C 2.230469 13.5 2.253906 13.609375 2.300781 13.75 C 2.386719 14.003906 2.492188 14.175781 2.675781 14.355469 C 2.902344 14.582031 3.191406 14.730469 3.503906 14.785156 C 3.566406 14.796875 3.574219 14.796875 3.933594 14.800781 C 4.191406 14.804688 5.660156 14.804688 8.917969 14.800781 L 13.535156 14.800781 L 13.621094 14.773438 C 13.953125 14.675781 14.1875 14.542969 14.386719 14.339844 C 14.488281 14.238281 14.566406 14.128906 14.632812 14.003906 C 14.691406 13.894531 14.765625 13.707031 14.78125 13.628906 C 14.789062 13.585938 14.800781 13.488281 14.804688 13.40625 C 14.820312 13.113281 14.828125 11.945312 14.824219 8.578125 C 14.820312 5.707031 14.816406 4.726562 14.808594 4.640625 C 14.800781 4.558594 14.757812 4.40625 14.714844 4.289062 C 14.703125 4.261719 14.679688 4.207031 14.664062 4.167969 C 14.480469 3.792969 14.175781 3.523438 13.777344 3.386719 C 13.5625 3.3125 13.375 3.292969 12.917969 3.292969 L 12.726562 3.292969 L 12.722656 3.363281 C 12.722656 3.402344 12.722656 3.609375 12.71875 3.824219 C 12.714844 4.246094 12.710938 4.46875 12.703125 4.539062 C 12.683594 4.71875 12.539062 4.980469 12.375 5.125 C 12.289062 5.199219 12.21875 5.25 12.117188 5.296875 C 12.019531 5.34375 11.941406 5.367188 11.832031 5.386719 C 11.773438 5.394531 11.5625 5.390625 11.5 5.382812 C 11.367188 5.363281 11.257812 5.320312 11.136719 5.25 C 10.960938 5.140625 10.824219 4.992188 10.734375 4.808594 C 10.683594 4.707031 10.65625 4.617188 10.640625 4.519531 C 10.632812 4.445312 10.628906 4.179688 10.628906 3.707031 L 10.628906 3.292969 L 10.058594 3.292969 C 9.742188 3.292969 9.414062 3.296875 9.332031 3.296875 Z M 9.332031 3.296875 "/>
<path style=" stroke:none;fill-rule:nonzero;fill:rgb(0%,0%,0%);fill-opacity:1;" d="M 6.570312 3.300781 C 6.558594 3.304688 6.546875 3.308594 6.539062 3.308594 C 6.503906 3.324219 6.28125 3.523438 5.816406 3.957031 C 5.621094 4.140625 5.230469 4.507812 5.191406 4.546875 L 5.164062 4.570312 L 5.046875 4.574219 C 4.914062 4.578125 4.882812 4.582031 4.804688 4.605469 C 4.671875 4.648438 4.582031 4.738281 4.515625 4.894531 C 4.492188 4.949219 4.488281 4.976562 4.488281 5.125 C 4.488281 5.257812 4.492188 5.289062 4.503906 5.332031 C 4.515625 5.367188 4.566406 5.46875 4.59375 5.511719 C 4.625 5.558594 4.675781 5.609375 4.699219 5.621094 C 4.710938 5.625 4.714844 5.632812 4.71875 5.644531 C 4.730469 5.695312 4.753906 5.917969 4.796875 6.394531 C 4.835938 6.863281 4.847656 6.957031 4.867188 7.023438 C 4.878906 7.0625 4.894531 7.082031 4.921875 7.097656 C 4.960938 7.125 5.011719 7.136719 5.066406 7.140625 C 5.160156 7.144531 5.222656 7.121094 5.296875 7.054688 C 5.351562 7 5.363281 6.964844 5.375 6.832031 C 5.378906 6.773438 5.386719 6.664062 5.40625 6.34375 C 5.4375 5.785156 5.453125 5.605469 5.480469 5.554688 C 5.484375 5.546875 5.496094 5.527344 5.511719 5.507812 C 5.550781 5.445312 5.589844 5.359375 5.601562 5.285156 C 5.613281 5.226562 5.617188 5.183594 5.617188 5.09375 L 5.617188 5.007812 L 5.769531 4.832031 C 6.207031 4.328125 6.65625 3.808594 6.730469 3.71875 C 6.824219 3.605469 6.828125 3.597656 6.835938 3.53125 C 6.84375 3.453125 6.828125 3.402344 6.785156 3.359375 C 6.761719 3.332031 6.714844 3.308594 6.675781 3.300781 C 6.648438 3.296875 6.601562 3.296875 6.570312 3.300781 Z M 6.570312 3.300781 "/>
<path style=" stroke:none;fill-rule:nonzero;fill:rgb(0%,0%,0%);fill-opacity:1;" d="M 9.039062 8.023438 L 9.039062 8.550781 L 9.574219 8.546875 L 10.105469 8.546875 L 10.105469 7.503906 L 9.574219 7.5 L 9.039062 7.5 Z M 9.039062 8.023438 "/>
<path style=" stroke:none;fill-rule:nonzero;fill:rgb(0%,0%,0%);fill-opacity:1;" d="M 11.152344 8.023438 L 11.152344 8.550781 L 12.203125 8.550781 L 12.199219 8.027344 L 12.199219 7.503906 L 11.675781 7.5 L 11.152344 7.5 Z M 11.152344 8.023438 "/>
<path style=" stroke:none;fill-rule:nonzero;fill:rgb(0%,0%,0%);fill-opacity:1;" d="M 4.910156 9.601562 L 4.851562 9.605469 L 4.851562 9.8125 C 4.851562 9.929688 4.847656 10.164062 4.847656 10.335938 L 4.84375 10.652344 L 4.933594 10.652344 C 4.984375 10.65625 5.21875 10.660156 5.460938 10.660156 L 5.898438 10.664062 L 5.894531 10.136719 C 5.890625 9.847656 5.890625 9.609375 5.886719 9.605469 C 5.886719 9.605469 5.003906 9.597656 4.910156 9.601562 Z M 4.910156 9.601562 "/>
<path style=" stroke:none;fill-rule:nonzero;fill:rgb(0%,0%,0%);fill-opacity:1;" d="M 6.945312 10.128906 L 6.945312 10.660156 L 7.996094 10.660156 L 7.996094 9.597656 L 6.945312 9.597656 Z M 6.945312 10.128906 "/>
<path style=" stroke:none;fill-rule:nonzero;fill:rgb(0%,0%,0%);fill-opacity:1;" d="M 9.125 9.601562 C 9.054688 9.605469 9.050781 9.609375 9.046875 9.628906 C 9.042969 9.648438 9.042969 10.3125 9.046875 10.503906 L 9.050781 10.652344 L 10.097656 10.652344 L 10.097656 10.128906 C 10.097656 9.84375 10.097656 9.605469 10.09375 9.605469 C 10.089844 9.601562 9.179688 9.601562 9.125 9.601562 Z M 9.125 9.601562 "/>
<path style=" stroke:none;fill-rule:nonzero;fill:rgb(0%,0%,0%);fill-opacity:1;" d="M 11.152344 10.128906 L 11.152344 10.660156 L 12.203125 10.660156 L 12.203125 9.597656 L 11.152344 9.597656 Z M 11.152344 10.128906 "/>
<path style=" stroke:none;fill-rule:nonzero;fill:rgb(0%,0%,0%);fill-opacity:1;" d="M 4.851562 12.230469 L 4.851562 12.757812 L 5.894531 12.757812 L 5.894531 11.707031 L 4.851562 11.707031 Z M 4.851562 12.230469 "/>
<path style=" stroke:none;fill-rule:nonzero;fill:rgb(0%,0%,0%);fill-opacity:1;" d="M 6.945312 11.710938 C 6.945312 11.710938 6.945312 11.945312 6.945312 12.234375 L 6.945312 12.757812 L 7.996094 12.757812 L 7.992188 12.234375 L 7.992188 11.710938 L 7.472656 11.710938 C 7.183594 11.710938 6.949219 11.710938 6.945312 11.710938 Z M 6.945312 11.710938 "/>
<path style=" stroke:none;fill-rule:nonzero;fill:rgb(0%,0%,0%);fill-opacity:1;" d="M 9.042969 11.710938 C 9.039062 11.710938 9.039062 11.945312 9.039062 12.234375 L 9.039062 12.757812 L 10.105469 12.757812 L 10.105469 12.234375 C 10.105469 11.945312 10.105469 11.710938 10.105469 11.710938 C 9.851562 11.710938 9.042969 11.710938 9.042969 11.710938 Z M 9.042969 11.710938 "/>
<path style=" stroke:none;fill-rule:nonzero;fill:rgb(0%,0%,0%);fill-opacity:1;" d="M 11.152344 11.710938 C 11.152344 11.710938 11.152344 11.945312 11.152344 12.234375 L 11.152344 12.757812 L 12.203125 12.757812 L 12.199219 12.234375 L 12.199219 11.710938 L 11.675781 11.710938 C 11.390625 11.710938 11.15625 11.710938 11.152344 11.710938 Z M 11.152344 11.710938 "/>
</g>
</svg>
